ManameInformal-Regular.ufo
<glyph name="nine" format="2">
	<advance width="487"/>
	<unicode hex="0039"/>
	<outline>
		<contour>
			<point x="333" y="-11"/>
			<point x="453" y="183"/>
			<point x="453" y="392" type="curve" smooth="yes"/>
			<point x="453" y="488"/>
			<point x="407" y="621"/>
			<point x="251" y="621" type="curve" smooth="yes"/>
			<point x="118" y="621"/>
			<point x="58" y="515"/>
			<point x="58" y="407" type="curve" smooth="yes"/>
			<point x="58" y="272"/>
			<point x="153" y="219"/>
			<point x="226" y="219" type="curve" smooth="yes"/>
			<point x="276" y="219"/>
			<point x="339" y="236"/>
			<point x="400" y="323" type="curve"/>
			<point x="402" y="324"/>
			<point x="383" y="352"/>
			<point x="384" y="352" type="curve"/>
			<point x="375" y="343"/>
			<point x="330" y="291"/>
			<point x="246" y="291" type="curve" smooth="yes"/>
			<point x="195" y="291"/>
			<point x="141" y="333"/>
			<point x="141" y="433" type="curve" smooth="yes"/>
			<point x="141" y="516"/>
			<point x="179" y="572"/>
			<point x="243" y="572" type="curve" smooth="yes"/>
			<point x="329" y="572"/>
			<point x="359" y="469"/>
			<point x="359" y="362" type="curve" smooth="yes"/>
			<point x="359" y="208"/>
			<point x="279" y="58"/>
			<point x="94" y="52" type="curve"/>
			<point x="100" y="-3" type="line"/>
		</contour>
	</outline>
</glyph>
<glyph name="Q" format="2">
	<advance width="648"/>
	<unicode hex="0051"/>
	<outline>
		<contour>
			<point x="591" y="-185"/>
			<point x="643" y="-180"/>
			<point x="691" y="-165" type="curve"/>
			<point x="699" y="-100" type="line"/>
			<point x="687" y="-74" type="line"/>
			<point x="687" y="-74"/>
			<point x="618" y="-100"/>
			<point x="524" y="-99" type="curve" smooth="yes"/>
			<point x="437" y="-97"/>
			<point x="278" y="-62"/>
			<point x="235" y="16" type="curve"/>
			<point x="180" y="9" type="line"/>
			<point x="203" y="-45"/>
			<point x="316" y="-181"/>
			<point x="504" y="-184" type="curve" smooth="yes"/>
		</contour>
		<component base="O"/>
	</outline>
</glyph>
<glyph name="e" format="2">
	<advance width="470"/>
	<unicode hex="0065"/>
	<outline>
		<contour>
			<point x="35" y="58"/>
			<point x="132" y="-16"/>
			<point x="254" y="-15" type="curve" smooth="yes"/>
			<point x="352" y="-15"/>
			<point x="404" y="42"/>
			<point x="417" y="59" type="curve"/>
			<point x="401" y="85" type="line"/>
			<point x="400" y="85"/>
			<point x="353" y="40"/>
			<point x="277" y="41" type="curve" smooth="yes"/>
			<point x="156" y="42"/>
			<point x="126" y="137"/>
			<point x="128" y="239" type="curve" smooth="yes"/>
			<point x="129" y="350"/>
			<point x="179" y="422"/>
			<point x="244" y="422" type="curve" smooth="yes"/>
			<point x="306" y="423"/>
			<point x="338" y="354"/>
			<point x="338" y="279" type="curve"/>
			<point x="289" y="278" type="line"/>
			<point x="105" y="260" type="line"/>
			<point x="118" y="223" type="line"/>
			<point x="433" y="225" type="line"/>
			<point x="450" y="383"/>
			<point x="367" y="464"/>
			<point x="258" y="463" type="curve" smooth="yes"/>
			<point x="142" y="461"/>
			<point x="35" y="373"/>
			<point x="35" y="197" type="curve" smooth="yes"/>
		</contour>
	</outline>
</glyph>
<glyph name="r" format="2">
	<advance width="446"/>
	<unicode hex="0072"/>
	<outline>
		<contour>
			<point x="43" y="411" type="line"/>
			<point x="112" y="410"/>
			<point x="132" y="391"/>
			<point x="138" y="349" type="curve" smooth="yes"/>
			<point x="140" y="333"/>
			<point x="140" y="314"/>
			<point x="140" y="291" type="curve" smooth="yes"/>
			<point x="140" y="240"/>
			<point x="140" y="162"/>
			<point x="133" y="94" type="curve" smooth="yes"/>
			<point x="130" y="62"/>
			<point x="110" y="49"/>
			<point x="82" y="48" type="curve"/>
			<point x="73" y="47"/>
			<point x="65" y="47"/>
			<point x="56" y="48" type="curve"/>
			<point x="62" y="0" type="line"/>
			<point x="325" y="0" type="line"/>
			<point x="317" y="37" type="line"/>
			<point x="306" y="37" type="line"/>
			<point x="274" y="39"/>
			<point x="223" y="49"/>
			<point x="222" y="113" type="curve" smooth="yes"/>
			<point x="220" y="202"/>
			<point x="221" y="282"/>
			<point x="225" y="368" type="curve"/>
			<point x="210" y="358" type="line"/>
			<point x="215" y="378"/>
			<point x="226" y="468"/>
			<point x="226" y="468" type="curve" smooth="yes"/>
			<point x="226" y="468"/>
			<point x="126" y="459"/>
			<point x="61" y="458" type="curve" smooth="yes"/>
			<point x="38" y="458" type="line"/>
		</contour>
		<contour>
			<point x="216" y="322"/>
			<point x="255" y="357"/>
			<point x="296" y="370" type="curve" smooth="yes"/>
			<point x="331" y="381"/>
			<point x="386" y="370"/>
			<point x="386" y="370" type="curve"/>
			<point x="322" y="381" type="line"/>
			<point x="352" y="370"/>
			<point x="364" y="350"/>
			<point x="369" y="332" type="curve"/>
			<point x="417" y="330" type="line"/>
			<point x="422" y="365"/>
			<point x="427" y="441"/>
			<point x="426" y="470" type="curve"/>
			<point x="331" y="470"/>
			<point x="197" y="383"/>
			<point x="172" y="293" type="curve"/>
			<point x="191" y="265" type="line"/>
		</contour>
	</outline>
</glyph>
<glyph name="Uhorn" format="2">
	<advance width="669"/>
	<unicode hex="01AF"/>
	<outline>
		<contour>
			<point x="670" y="597"/>
			<point x="669" y="667" type="curve" smooth="yes"/>
			<point x="668" y="708"/>
			<point x="644" y="762"/>
			<point x="597" y="762" type="curve" smooth="yes"/>
			<point x="564" y="762"/>
			<point x="549" y="742"/>
			<point x="553" y="705" type="curve"/>
			<point x="584" y="697"/>
			<point x="612" y="680"/>
			<point x="612" y="651" type="curve" smooth="yes"/>
			<point x="612" y="621"/>
			<point x="591" y="616"/>
			<point x="551" y="613" type="curve"/>
			<point x="575" y="565" type="line"/>
			<point x="624" y="565"/>
		</contour>
		<component base="U"/>
	</outline>
</glyph>
<glyph name="sinDa" format="2">
	<advance width="438"/>
	<unicode hex="0DAF"/>
	<outline>
		<contour>
			<point x="290" y="-26"/>
			<point x="340" y="2"/>
			<point x="372" y="16" type="curve"/>
			<point x="380" y="33"/>
			<point x="385" y="62"/>
			<point x="385" y="91" type="curve"/>
			<point x="377" y="101" type="line"/>
			<point x="331" y="67"/>
			<point x="276" y="46"/>
			<point x="214" y="46" type="curve" smooth="yes"/>
			<point x="118" y="46"/>
			<point x="69" y="79"/>
			<point x="69" y="129" type="curve" smooth="yes"/>
			<point x="69" y="194"/>
			<point x="136" y="261"/>
			<point x="273" y="261" type="curve" smooth="yes"/>
			<point x="295" y="261"/>
			<point x="344" y="258"/>
			<point x="370" y="254" type="curve"/>
			<point x="384" y="268" type="line"/>
			<point x="389" y="353"/>
			<point x="336" y="462"/>
			<point x="224" y="462" type="curve" smooth="yes"/>
			<point x="150" y="462"/>
			<point x="98" y="424"/>
			<point x="98" y="370" type="curve" smooth="yes"/>
			<point x="98" y="342"/>
			<point x="119" y="326"/>
			<point x="152" y="326" type="curve" smooth="yes"/>
			<point x="162" y="326"/>
			<point x="172" y="328"/>
			<point x="184" y="330" type="curve"/>
			<point x="182" y="337"/>
			<point x="182" y="343"/>
			<point x="182" y="350" type="curve" smooth="yes"/>
			<point x="182" y="391"/>
			<point x="217" y="413"/>
			<point x="252" y="413" type="curve" smooth="yes"/>
			<point x="302" y="413"/>
			<point x="321" y="367"/>
			<point x="325" y="316" type="curve"/>
			<point x="313" y="319"/>
			<point x="301" y="320"/>
			<point x="276" y="320" type="curve" smooth="yes"/>
			<point x="128" y="320"/>
			<point x="30" y="236"/>
			<point x="30" y="126" type="curve" smooth="yes"/>
			<point x="30" y="39"/>
			<point x="102" y="-26"/>
			<point x="217" y="-26" type="curve" smooth="yes"/>
		</contour>
		<contour>
			<point x="335" y="-240"/>
			<point x="362" y="-201"/>
			<point x="364" y="-159" type="curve"/>
			<point x="329" y="-169"/>
			<point x="301" y="-174"/>
			<point x="279" y="-174" type="curve" smooth="yes"/>
			<point x="221" y="-174"/>
			<point x="203" y="-146"/>
			<point x="203" y="-119" type="curve" smooth="yes"/>
			<point x="203" y="-52"/>
			<point x="294" y="-15"/>
			<point x="330" y="-2" type="curve"/>
			<point x="293" y="8" type="line"/>
			<point x="239" y="-15"/>
			<point x="142" y="-62"/>
			<point x="142" y="-152" type="curve" smooth="yes"/>
			<point x="142" y="-201"/>
			<point x="178" y="-254"/>
			<point x="278" y="-254" type="curve" smooth="yes"/>
			<point x="289" y="-254"/>
			<point x="300" y="-254"/>
			<point x="312" y="-253" type="curve"/>
		</contour>
	</outline>
	<anchor name="Virama" x="334" y="407"/>
</glyph>
<glyph name="sinSa" format="2">
	<advance width="697"/>
	<unicode hex="0DC3"/>
	<outline>
		<contour>
			<point x="590" y="-22"/>
			<point x="653" y="65"/>
			<point x="653" y="158" type="curve" smooth="yes"/>
			<point x="653" y="251"/>
			<point x="588" y="313"/>
			<point x="491" y="316" type="curve" smooth="yes"/>
			<point x="455" y="317"/>
			<point x="425" y="306"/>
			<point x="401" y="295" type="curve"/>
			<point x="458" y="272" type="line"/>
			<point x="451" y="280"/>
			<point x="432" y="298"/>
			<point x="432" y="337" type="curve" smooth="yes"/>
			<point x="432" y="380"/>
			<point x="454" y="417"/>
			<point x="506" y="417" type="curve" smooth="yes"/>
			<point x="544" y="417"/>
			<point x="577" y="395"/>
			<point x="577" y="353" type="curve" smooth="yes"/>
			<point x="577" y="324"/>
			<point x="556" y="288"/>
			<point x="552" y="282" type="curve"/>
			<point x="556" y="284"/>
			<point x="566" y="273"/>
			<point x="570" y="276" type="curve"/>
			<point x="599" y="290"/>
			<point x="635" y="325"/>
			<point x="635" y="366" type="curve" smooth="yes"/>
			<point x="635" y="419"/>
			<point x="593" y="462"/>
			<point x="524" y="462" type="curve" smooth="yes"/>
			<point x="424" y="462"/>
			<point x="373" y="374"/>
			<point x="386" y="252" type="curve"/>
			<point x="397" y="243" type="line"/>
			<point x="429" y="255"/>
			<point x="461" y="263"/>
			<point x="493" y="263" type="curve" smooth="yes"/>
			<point x="549" y="263"/>
			<point x="619" y="237"/>
			<point x="618" y="168" type="curve" smooth="yes"/>
			<point x="617" y="121"/>
			<point x="588" y="59"/>
			<point x="493" y="59" type="curve" smooth="yes"/>
			<point x="414" y="59"/>
			<point x="360" y="123"/>
			<point x="368" y="181" type="curve"/>
			<point x="362" y="180"/>
			<point x="353" y="178"/>
			<point x="348" y="176" type="curve"/>
			<point x="332" y="101"/>
			<point x="296" y="60"/>
			<point x="224" y="60" type="curve" smooth="yes"/>
			<point x="151" y="60"/>
			<point x="106" y="93"/>
			<point x="106" y="141" type="curve"/>
			<point x="105" y="199"/>
			<point x="169" y="270"/>
			<point x="323" y="243" type="curve"/>
			<point x="335" y="254" type="line"/>
			<point x="359" y="334"/>
			<point x="333" y="463"/>
			<point x="219" y="463" type="curve" smooth="yes"/>
			<point x="159" y="463"/>
			<point x="115" y="428"/>
			<point x="110" y="389" type="curve" smooth="yes"/>
			<point x="105" y="352"/>
			<point x="139" y="333"/>
			<point x="164" y="332" type="curve"/>
			<point x="172" y="370"/>
			<point x="196" y="410"/>
			<point x="240" y="409" type="curve" smooth="yes"/>
			<point x="276" y="408"/>
			<point x="302" y="386"/>
			<point x="302" y="347" type="curve" smooth="yes"/>
			<point x="302" y="324"/>
			<point x="297" y="310"/>
			<point x="291" y="300" type="curve"/>
			<point x="206" y="291" type="line"/>
			<point x="134" y="264"/>
			<point x="75" y="207"/>
			<point x="74" y="122" type="curve" smooth="yes"/>
			<point x="73" y="55"/>
			<point x="116" y="-20"/>
			<point x="222" y="-19" type="curve" smooth="yes"/>
			<point x="312" y="-18"/>
			<point x="356" y="61"/>
			<point x="360" y="103" type="curve"/>
			<point x="358" y="105"/>
			<point x="356" y="118"/>
			<point x="357" y="119" type="curve"/>
			<point x="336" y="58"/>
			<point x="384" y="-22"/>
			<point x="486" y="-22" type="curve" smooth="yes"/>
		</contour>
		<contour>
			<point x="59" y="244"/>
			<point x="168" y="299"/>
			<point x="303" y="290" type="curve"/>
			<point x="316" y="305" type="line"/>
			<point x="232" y="306"/>
			<point x="83" y="303"/>
			<point x="21" y="292" type="curve"/>
			<point x="12" y="270"/>
			<point x="9" y="248"/>
			<point x="7" y="226" type="curve"/>
			<point x="16" y="219" type="line"/>
		</contour>
	</outline>
	<anchor name="rakaransaya" x="644" y="162"/>
</glyph>
<glyph name="sinLla" format="2">
	<advance width="579"/>
	<unicode hex="0DC5"/>
	<outline>
		<contour>
			<point x="430" y="-160"/>
			<point x="512" y="-100"/>
			<point x="547" y="-68" type="curve"/>
			<point x="548" y="-56"/>
			<point x="540" y="-33"/>
			<point x="530" y="-23" type="curve"/>
			<point x="494" y="-50"/>
			<point x="414" y="-73"/>
			<point x="319" y="-73" type="curve" smooth="yes"/>
			<point x="178" y="-73"/>
			<point x="64" y="-9"/>
			<point x="64" y="99" type="curve" smooth="yes"/>
			<point x="64" y="223"/>
			<point x="201" y="270"/>
			<point x="358" y="270" type="curve" smooth="yes"/>
			<point x="425" y="270"/>
			<point x="490" y="261"/>
			<point x="523" y="250" type="curve"/>
			<point x="530" y="276"/>
			<point x="533" y="303"/>
			<point x="533" y="331" type="curve" smooth="yes"/>
			<point x="532" y="401"/>
			<point x="494" y="464"/>
			<point x="419" y="464" type="curve" smooth="yes"/>
			<point x="351" y="464"/>
			<point x="328" y="410"/>
			<point x="328" y="380" type="curve"/>
			<point x="331" y="394" type="line"/>
			<point x="331" y="403"/>
			<point x="315" y="465"/>
			<point x="238" y="465" type="curve" smooth="yes"/>
			<point x="155" y="465"/>
			<point x="105" y="395"/>
			<point x="105" y="301" type="curve" smooth="yes"/>
			<point x="105" y="173"/>
			<point x="204" y="69"/>
			<point x="329" y="69" type="curve" smooth="yes"/>
			<point x="422" y="69"/>
			<point x="484" y="108"/>
			<point x="512" y="136" type="curve"/>
			<point x="513" y="138"/>
			<point x="513" y="141"/>
			<point x="513" y="144" type="curve" smooth="yes"/>
			<point x="513" y="154"/>
			<point x="509" y="165"/>
			<point x="504" y="171" type="curve"/>
			<point x="463" y="152"/>
			<point x="406" y="144"/>
			<point x="352" y="145" type="curve" smooth="yes"/>
			<point x="275" y="146"/>
			<point x="145" y="176"/>
			<point x="145" y="296" type="curve" smooth="yes"/>
			<point x="145" y="370"/>
			<point x="193" y="400"/>
			<point x="239" y="400" type="curve" smooth="yes"/>
			<point x="273" y="400"/>
			<point x="304" y="386"/>
			<point x="316" y="351" type="curve"/>
			<point x="341" y="353" type="line"/>
			<point x="355" y="383"/>
			<point x="387" y="396"/>
			<point x="420" y="396" type="curve" smooth="yes"/>
			<point x="456" y="396"/>
			<point x="507" y="372"/>
			<point x="502" y="302" type="curve"/>
			<point x="506" y="304" type="line"/>
			<point x="458" y="321"/>
			<point x="397" y="330"/>
			<point x="338" y="330" type="curve" smooth="yes"/>
			<point x="163" y="330"/>
			<point x="27" y="244"/>
			<point x="27" y="76" type="curve" smooth="yes"/>
			<point x="27" y="-63"/>
			<point x="145" y="-160"/>
			<point x="304" y="-160" type="curve" smooth="yes"/>
		</contour>
	</outline>
	<anchor name="Virama" x="514" y="394"/>
</glyph>
<glyph name="endash" format="2">
	<advance width="385"/>
	<unicode hex="2013"/>
	<outline>
		<contour>
			<point x="354" y="253" type="line"/>
			<point x="354" y="326" type="line"/>
			<point x="30" y="326" type="line"/>
			<point x="30" y="253" type="line"/>
		</contour>
	</outline>
</glyph>
<glyph name="divisionslash" format="2">
	<advance width="462"/>
	<unicode hex="2215"/>
	<outline>
		<contour>
			<point x="81" y="-62" type="line"/>
			<point x="176" y="167"/>
			<point x="342" y="521"/>
			<point x="406" y="651" type="curve"/>
			<point x="328" y="648" type="line"/>
			<point x="230" y="412"/>
			<point x="126" y="175"/>
			<point x="7" y="-62" type="curve"/>
		</contour>
	</outline>
</glyph>
<glyph name="moonwithface" format="2">
	<advance width="462"/>
	<unicode hex="1F31D"/>
	<outline>
		<contour>
			<point x="199" y="249" type="line"/>
			<point x="311" y="249" type="line"/>
			<point x="311" y="462" type="line"/>
			<point x="199" y="462" type="line"/>
		</contour>
	</outline>
</glyph>
<glyph name="sinCh.virama" format="2">
	<advance width="605"/>
	<outline>
		<contour>
			<point x="464" y="-20"/>
			<point x="581" y="70"/>
			<point x="581" y="193" type="curve" smooth="yes"/>
			<point x="581" y="275"/>
			<point x="520" y="320"/>
			<point x="439" y="320" type="curve" smooth="yes"/>
			<point x="400" y="320"/>
			<point x="385" y="326"/>
			<point x="363" y="315" type="curve"/>
			<point x="367" y="270" type="line"/>
			<point x="369" y="301" type="line"/>
			<point x="369" y="346"/>
			<point x="383" y="399"/>
			<point x="454" y="399" type="curve" smooth="yes"/>
			<point x="491" y="399"/>
			<point x="532" y="372"/>
			<point x="532" y="317" type="curve" smooth="yes"/>
			<point x="532" y="266"/>
			<point x="501" y="201"/>
			<point x="441" y="201" type="curve" smooth="yes"/>
			<point x="358" y="201"/>
			<point x="369" y="287"/>
			<point x="369" y="317" type="curve" smooth="yes"/>
			<point x="369" y="419"/>
			<point x="433" y="486"/>
			<point x="474" y="532" type="curve" smooth="yes"/>
			<point x="508" y="570"/>
			<point x="606" y="630"/>
			<point x="606" y="630" type="curve"/>
			<point x="603" y="655"/>
			<point x="582" y="678"/>
			<point x="573" y="682" type="curve"/>
			<point x="423" y="597"/>
			<point x="325" y="431"/>
			<point x="325" y="295" type="curve" smooth="yes"/>
			<point x="325" y="176"/>
			<point x="387" y="156"/>
			<point x="430" y="156" type="curve" smooth="yes"/>
			<point x="521" y="156"/>
			<point x="569" y="256"/>
			<point x="569" y="341" type="curve" smooth="yes"/>
			<point x="569" y="402"/>
			<point x="528" y="454"/>
			<point x="472" y="454" type="curve" smooth="yes"/>
			<point x="380" y="454"/>
			<point x="318" y="341"/>
			<point x="330" y="256" type="curve"/>
			<point x="345" y="248" type="line"/>
			<point x="377" y="259"/>
			<point x="412" y="272"/>
			<point x="447" y="272" type="curve" smooth="yes"/>
			<point x="501" y="272"/>
			<point x="545" y="251"/>
			<point x="545" y="199" type="curve" smooth="yes"/>
			<point x="545" y="127"/>
			<point x="450" y="63"/>
			<point x="316" y="63" type="curve" smooth="yes"/>
			<point x="160" y="63"/>
			<point x="78" y="116"/>
			<point x="78" y="179" type="curve" smooth="yes"/>
			<point x="78" y="231"/>
			<point x="137" y="260"/>
			<point x="223" y="260" type="curve" smooth="yes"/>
			<point x="242" y="260"/>
			<point x="263" y="259"/>
			<point x="285" y="256" type="curve"/>
			<point x="296" y="267" type="line"/>
			<point x="300" y="284"/>
			<point x="302" y="304"/>
			<point x="302" y="324" type="curve" smooth="yes"/>
			<point x="302" y="387"/>
			<point x="277" y="454"/>
			<point x="184" y="454" type="curve" smooth="yes"/>
			<point x="123" y="454"/>
			<point x="85" y="420"/>
			<point x="85" y="382" type="curve" smooth="yes"/>
			<point x="85" y="345"/>
			<point x="112" y="332"/>
			<point x="138" y="330" type="curve"/>
			<point x="146" y="361"/>
			<point x="176" y="403"/>
			<point x="218" y="403" type="curve" smooth="yes"/>
			<point x="252" y="403"/>
			<point x="267" y="379"/>
			<point x="267" y="348" type="curve" smooth="yes"/>
			<point x="267" y="315"/>
			<point x="246" y="295"/>
			<point x="236" y="286" type="curve"/>
			<point x="273" y="316" type="line"/>
			<point x="262" y="317"/>
			<point x="250" y="318"/>
			<point x="239" y="318" type="curve" smooth="yes"/>
			<point x="143" y="318"/>
			<point x="46" y="261"/>
			<point x="46" y="169" type="curve" smooth="yes"/>
			<point x="46" y="78"/>
			<point x="117" y="-20"/>
			<point x="321" y="-20" type="curve" smooth="yes"/>
		</contour>
		<contour>
			<point x="359" y="290" type="line"/>
			<point x="359" y="571" type="line"/>
			<point x="367" y="552"/>
			<point x="388" y="533"/>
			<point x="419" y="533" type="curve" smooth="yes"/>
			<point x="469" y="533"/>
			<point x="488" y="557"/>
			<point x="488" y="600" type="curve" smooth="yes"/>
			<point x="488" y="701"/>
			<point x="369" y="733"/>
			<point x="343" y="738" type="curve"/>
			<point x="332" y="728" type="line"/>
			<point x="325" y="290" type="line"/>
		</contour>
		<contour>
			<point x="389" y="583"/>
			<point x="359" y="610"/>
			<point x="359" y="651" type="curve" smooth="yes"/>
			<point x="359" y="673" type="line"/>
			<point x="394" y="669"/>
			<point x="455" y="656"/>
			<point x="455" y="614" type="curve" smooth="yes"/>
			<point x="455" y="593"/>
			<point x="442" y="583"/>
			<point x="422" y="583" type="curve" smooth="yes"/>
		</contour>
	</outline>
	<anchor name="_si_MaU" x="570" y="196"/>
</glyph>
<glyph name="sinDV.virama" format="2">
	<advance width="755"/>
	<outline>
		<contour>
			<point x="161" y="18"/>
			<point x="177" y="20"/>
			<point x="184" y="25" type="curve"/>
			<point x="173" y="50"/>
			<point x="143" y="123"/>
			<point x="143" y="176" type="curve" smooth="yes"/>
			<point x="143" y="269"/>
			<point x="181" y="360"/>
			<point x="277" y="367" type="curve"/>
			<point x="314" y="406" type="line"/>
			<point x="180" y="406"/>
			<point x="90" y="303"/>
			<point x="90" y="192" type="curve" smooth="yes"/>
			<point x="90" y="102"/>
			<point x="130" y="50"/>
			<point x="150" y="18" type="curve"/>
		</contour>
		<component base="sinV.virama" xOffset="154"/>
	</outline>
</glyph>
<glyph name="sinDdU" format="2">
	<advance width="675"/>
	<outline>
		<contour>
			<point x="617" y="-215" type="line"/>
			<point x="610" y="201" type="line"/>
			<point x="580" y="199" type="line"/>
			<point x="562" y="-143" type="line"/>
			<point x="461" y="-157"/>
			<point x="338" y="-170"/>
			<point x="247" y="-168" type="curve" smooth="yes"/>
			<point x="195" y="-167"/>
			<point x="173" y="-119"/>
			<point x="173" y="-92" type="curve"/>
			<point x="151" y="-87"/>
			<point x="110" y="-103"/>
			<point x="99" y="-115" type="curve"/>
			<point x="107" y="-157"/>
			<point x="147" y="-215"/>
			<point x="249" y="-215" type="curve" smooth="yes"/>
		</contour>
		<component base="sinDda" xOffset="-21"/>
	</outline>
</glyph>
<glyph name="sinJnyRa" format="2">
	<advance width="813"/>
	<outline>
		<contour>
			<point x="438" y="-7"/>
			<point x="517" y="77"/>
			<point x="525" y="165" type="curve" smooth="yes"/>
			<point x="531" y="234"/>
			<point x="488" y="290"/>
			<point x="420" y="289" type="curve"/>
			<point x="409" y="249" type="line"/>
			<point x="437" y="248"/>
			<point x="493" y="219"/>
			<point x="485" y="164" type="curve" smooth="yes"/>
			<point x="476" y="101"/>
			<point x="384" y="78"/>
			<point x="315" y="79" type="curve" smooth="yes"/>
			<point x="216" y="80"/>
			<point x="160" y="142"/>
			<point x="172" y="218" type="curve" smooth="yes"/>
			<point x="190" y="332"/>
			<point x="281" y="363"/>
			<point x="373" y="363" type="curve"/>
			<point x="378" y="372"/>
			<point x="389" y="430"/>
			<point x="385" y="447" type="curve"/>
			<point x="293" y="446"/>
			<point x="148" y="352"/>
			<point x="131" y="195" type="curve" smooth="yes"/>
			<point x="118" y="75"/>
			<point x="177" y="-12"/>
			<point x="324" y="-9" type="curve" smooth="yes"/>
		</contour>
		<contour>
			<point x="102" y="-3"/>
			<point x="113" y="1"/>
			<point x="117" y="4" type="curve"/>
			<point x="89" y="36"/>
			<point x="80" y="120"/>
			<point x="88" y="188" type="curve" smooth="yes"/>
			<point x="103" y="315"/>
			<point x="186" y="399"/>
			<point x="280" y="407" type="curve"/>
			<point x="283" y="411" type="line"/>
			<point x="385" y="447" type="line"/>
			<point x="382" y="453" type="line"/>
			<point x="369" y="456"/>
			<point x="351" y="457"/>
			<point x="327" y="457" type="curve" smooth="yes"/>
			<point x="193" y="457"/>
			<point x="47" y="353"/>
			<point x="31" y="186" type="curve" smooth="yes"/>
			<point x="24" y="111"/>
			<point x="50" y="32"/>
			<point x="83" y="-3" type="curve"/>
		</contour>
		<contour>
			<point x="384" y="168"/>
			<point x="396" y="169"/>
			<point x="409" y="170" type="curve"/>
			<point x="408" y="290"/>
			<point x="487" y="375"/>
			<point x="641" y="375" type="curve"/>
			<point x="680" y="455" type="line"/>
			<point x="509" y="453"/>
			<point x="387" y="332"/>
			<point x="373" y="170" type="curve"/>
		</contour>
		<component base="sinDRa" xOffset="454"/>
	</outline>
	<anchor name="Virama" x="716" y="410"/>
</glyph>
<glyph name="sinKVa" format="2">
	<advance width="1055"/>
	<outline>
		<contour>
			<point x="247" y="-8"/>
			<point x="284" y="20"/>
			<point x="299" y="62" type="curve"/>
			<point x="311" y="18"/>
			<point x="347" y="-6"/>
			<point x="391" y="-6" type="curve" smooth="yes"/>
			<point x="478" y="-6"/>
			<point x="518" y="85"/>
			<point x="522" y="157" type="curve" smooth="yes"/>
			<point x="525" y="250"/>
			<point x="479" y="319"/>
			<point x="399" y="319" type="curve" smooth="yes"/>
			<point x="313" y="319"/>
			<point x="214" y="253"/>
			<point x="178" y="215" type="curve"/>
			<point x="210" y="239" type="line"/>
			<point x="212" y="248"/>
			<point x="259" y="282"/>
			<point x="272" y="293" type="curve" smooth="yes"/>
			<point x="330" y="340"/>
			<point x="498" y="411"/>
			<point x="599" y="362" type="curve"/>
			<point x="677" y="416" type="line"/>
			<point x="501" y="471"/>
			<point x="350" y="401"/>
			<point x="247" y="314" type="curve" smooth="yes"/>
			<point x="103" y="193"/>
			<point x="30" y="115"/>
			<point x="11" y="96" type="curve"/>
			<point x="8" y="75"/>
			<point x="29" y="62"/>
			<point x="33" y="61" type="curve"/>
			<point x="40" y="96"/>
			<point x="137" y="173"/>
			<point x="175" y="197" type="curve" smooth="yes"/>
			<point x="227" y="230"/>
			<point x="299" y="252"/>
			<point x="361" y="252" type="curve" smooth="yes"/>
			<point x="433" y="252"/>
			<point x="490" y="222"/>
			<point x="489" y="158" type="curve" smooth="yes"/>
			<point x="488" y="105"/>
			<point x="440" y="79"/>
			<point x="391" y="79" type="curve" smooth="yes"/>
			<point x="344" y="79"/>
			<point x="315" y="125"/>
			<point x="321" y="183" type="curve"/>
			<point x="302" y="179" type="line"/>
			<point x="288" y="116"/>
			<point x="242" y="77"/>
			<point x="194" y="77" type="curve" smooth="yes"/>
			<point x="133" y="77"/>
			<point x="127" y="136"/>
			<point x="64" y="117" type="curve"/>
			<point x="45" y="89" type="line"/>
			<point x="59" y="103"/>
			<point x="84" y="94"/>
			<point x="94" y="79" type="curve" smooth="yes"/>
			<point x="121" y="38"/>
			<point x="147" y="-5"/>
			<point x="201" y="-6" type="curve" smooth="yes"/>
		</contour>
		<contour>
			<point x="121" y="278"/>
			<point x="137" y="280"/>
			<point x="150" y="286" type="curve"/>
			<point x="139" y="300"/>
			<point x="130" y="313"/>
			<point x="131" y="340" type="curve" smooth="yes"/>
			<point x="133" y="389"/>
			<point x="163" y="422"/>
			<point x="197" y="422" type="curve" smooth="yes"/>
			<point x="232" y="422"/>
			<point x="247" y="393"/>
			<point x="246" y="360" type="curve" smooth="yes"/>
			<point x="245" y="329"/>
			<point x="234" y="306"/>
			<point x="219" y="290" type="curve"/>
			<point x="241" y="298" type="line"/>
			<point x="257" y="314"/>
			<point x="292" y="354"/>
			<point x="294" y="393" type="curve" smooth="yes"/>
			<point x="295" y="434"/>
			<point x="257" y="450"/>
			<point x="215" y="450" type="curve" smooth="yes"/>
			<point x="137" y="450"/>
			<point x="64" y="398"/>
			<point x="61" y="330" type="curve" smooth="yes"/>
			<point x="60" y="296"/>
			<point x="75" y="278"/>
			<point x="109" y="278" type="curve" smooth="yes"/>
		</contour>
		<component base="sinVa" xOffset="446"/>
	</outline>
</glyph>
<glyph name="sinMatraU.alt2" format="2">
	<advance width="0"/>
	<outline>
		<contour>
			<point x="4" y="-215" type="line"/>
			<point x="25" y="-199" type="line"/>
			<point x="20" y="197" type="line"/>
			<point x="-10" y="195" type="line"/>
			<point x="-30" y="-151" type="line"/>
			<point x="-134" y="-165"/>
			<point x="-298" y="-173"/>
			<point x="-392" y="-171" type="curve" smooth="yes"/>
			<point x="-444" y="-170"/>
			<point x="-466" y="-119"/>
			<point x="-466" y="-92" type="curve"/>
			<point x="-488" y="-87"/>
			<point x="-529" y="-103"/>
			<point x="-540" y="-115" type="curve"/>
			<point x="-532" y="-157"/>
			<point x="-492" y="-215"/>
			<point x="-390" y="-215" type="curve" smooth="yes"/>
		</contour>
	</outline>
</glyph>
<glyph name="sinRIi" format="2">
	<advance width="535"/>
	<outline>
		<contour>
			<point x="223" y="485" type="line"/>
			<point x="165" y="446"/>
			<point x="65" y="487"/>
			<point x="65" y="552" type="curve" smooth="yes"/>
			<point x="65" y="615"/>
			<point x="118" y="645"/>
			<point x="174" y="645" type="curve" smooth="yes"/>
			<point x="265" y="645"/>
			<point x="284" y="613"/>
			<point x="284" y="589" type="curve" smooth="yes"/>
			<point x="284" y="572"/>
			<point x="274" y="555"/>
			<point x="258" y="555" type="curve" smooth="yes"/>
			<point x="242" y="555"/>
			<point x="232" y="570"/>
			<point x="232" y="591" type="curve" smooth="yes"/>
			<point x="232" y="609"/>
			<point x="244" y="635"/>
			<point x="266" y="635" type="curve"/>
			<point x="257" y="647" type="line"/>
			<point x="230" y="647"/>
			<point x="194" y="625"/>
			<point x="194" y="588" type="curve" smooth="yes"/>
			<point x="194" y="554"/>
			<point x="224" y="533"/>
			<point x="253" y="533" type="curve" smooth="yes"/>
			<point x="295" y="533"/>
			<point x="313" y="564"/>
			<point x="313" y="608" type="curve" smooth="yes"/>
			<point x="313" y="651"/>
			<point x="266" y="705"/>
			<point x="189" y="705" type="curve" smooth="yes"/>
			<point x="78" y="705"/>
			<point x="32" y="624"/>
			<point x="32" y="556" type="curve" smooth="yes"/>
			<point x="32" y="457"/>
			<point x="111" y="419"/>
			<point x="187" y="419" type="curve"/>
		</contour>
		<component base="sinRa"/>
	</outline>
</glyph>
<glyph name="sinShI" format="2">
	<advance width="747"/>
	<outline>
		<contour>
			<point x="483" y="449" type="line"/>
			<point x="403" y="420"/>
			<point x="331" y="450"/>
			<point x="330" y="494" type="curve" smooth="yes"/>
			<point x="329" y="536"/>
			<point x="395" y="567"/>
			<point x="495" y="569" type="curve" smooth="yes"/>
			<point x="581" y="571"/>
			<point x="671" y="550"/>
			<point x="671" y="503" type="curve" smooth="yes"/>
			<point x="671" y="463"/>
			<point x="625" y="445"/>
			<point x="581" y="444" type="curve"/>
			<point x="617" y="402" type="line"/>
			<point x="685" y="422"/>
			<point x="716" y="472"/>
			<point x="716" y="530" type="curve" smooth="yes"/>
			<point x="716" y="596"/>
			<point x="661" y="659"/>
			<point x="526" y="658" type="curve" smooth="yes"/>
			<point x="401" y="657"/>
			<point x="298" y="599"/>
			<point x="298" y="498" type="curve" smooth="yes"/>
			<point x="298" y="446"/>
			<point x="335" y="380"/>
			<point x="478" y="380" type="curve"/>
		</contour>
		<component base="sinSha"/>
	</outline>
</glyph>
<glyph name="sinThIi" format="2">
	<advance width="609"/>
	<outline>
		<contour>
			<point x="219" y="550" type="line"/>
			<point x="206" y="550"/>
			<point x="126" y="553"/>
			<point x="126" y="614" type="curve" smooth="yes"/>
			<point x="126" y="638"/>
			<point x="145" y="691"/>
			<point x="266" y="691" type="curve" smooth="yes"/>
			<point x="341" y="691"/>
			<point x="478" y="668"/>
			<point x="478" y="598" type="curve" smooth="yes"/>
			<point x="478" y="578"/>
			<point x="467" y="565"/>
			<point x="441" y="565" type="curve" smooth="yes"/>
			<point x="419" y="565"/>
			<point x="400" y="582"/>
			<point x="400" y="611" type="curve" smooth="yes"/>
			<point x="400" y="636"/>
			<point x="421" y="660"/>
			<point x="443" y="660" type="curve"/>
			<point x="432" y="681" type="line"/>
			<point x="408" y="681"/>
			<point x="360" y="661"/>
			<point x="357" y="611" type="curve" smooth="yes"/>
			<point x="354" y="564"/>
			<point x="380" y="528"/>
			<point x="438" y="530" type="curve" smooth="yes"/>
			<point x="486" y="532"/>
			<point x="514" y="572"/>
			<point x="513" y="618" type="curve" smooth="yes"/>
			<point x="511" y="706"/>
			<point x="422" y="750"/>
			<point x="318" y="750" type="curve" smooth="yes"/>
			<point x="185" y="750"/>
			<point x="97" y="697"/>
			<point x="97" y="608" type="curve" smooth="yes"/>
			<point x="97" y="548"/>
			<point x="147" y="494"/>
			<point x="230" y="486" type="curve"/>
		</contour>
		<component base="sinTha"/>
	</outline>
</glyph>
<glyph name="sinTtI" format="2">
	<advance width="595"/>
	<outline>
		<contour>
			<point x="559" y="436"/>
			<point x="459" y="515"/>
			<point x="326" y="515" type="curve" smooth="yes"/>
			<point x="252" y="515"/>
			<point x="224" y="505"/>
			<point x="168" y="487" type="curve"/>
			<point x="145" y="487"/>
			<point x="126" y="504"/>
			<point x="126" y="530" type="curve" smooth="yes"/>
			<point x="126" y="577"/>
			<point x="168" y="608"/>
			<point x="288" y="608" type="curve" smooth="yes"/>
			<point x="370" y="608"/>
			<point x="488" y="584"/>
			<point x="488" y="535" type="curve" smooth="yes"/>
			<point x="488" y="501"/>
			<point x="439" y="496"/>
			<point x="395" y="507" type="curve"/>
			<point x="419" y="451" type="line"/>
			<point x="465" y="443"/>
			<point x="517" y="487"/>
			<point x="517" y="548" type="curve" smooth="yes"/>
			<point x="517" y="621"/>
			<point x="451" y="683"/>
			<point x="324" y="683" type="curve" smooth="yes"/>
			<point x="200" y="683"/>
			<point x="89" y="614"/>
			<point x="89" y="514" type="curve" smooth="yes"/>
			<point x="89" y="454"/>
			<point x="132" y="422"/>
			<point x="185" y="422" type="curve" smooth="yes"/>
			<point x="236" y="422"/>
			<point x="267" y="445"/>
			<point x="348" y="445" type="curve" smooth="yes"/>
			<point x="433" y="445"/>
			<point x="520" y="405"/>
			<point x="520" y="299" type="curve" smooth="yes"/>
			<point x="520" y="164"/>
			<point x="422" y="66"/>
			<point x="264" y="66" type="curve" smooth="yes"/>
			<point x="167" y="66"/>
			<point x="84" y="110"/>
			<point x="84" y="183" type="curve" smooth="yes"/>
			<point x="84" y="254"/>
			<point x="161" y="283"/>
			<point x="239" y="283" type="curve" smooth="yes"/>
			<point x="259" y="283"/>
			<point x="280" y="281"/>
			<point x="299" y="277" type="curve"/>
			<point x="308" y="291" type="line"/>
			<point x="306" y="312"/>
			<point x="297" y="334"/>
			<point x="283" y="355" type="curve"/>
			<point x="276" y="356"/>
			<point x="269" y="356"/>
			<point x="262" y="356" type="curve" smooth="yes"/>
			<point x="181" y="356"/>
			<point x="42" y="312"/>
			<point x="42" y="164" type="curve" smooth="yes"/>
			<point x="42" y="61"/>
			<point x="129" y="-27"/>
			<point x="265" y="-27" type="curve" smooth="yes"/>
			<point x="451" y="-27"/>
			<point x="559" y="107"/>
			<point x="559" y="292" type="curve" smooth="yes"/>
		</contour>
	</outline>
</glyph>
